<!DOCTYPE svg PUBLIC "-//W3C//DTD SVG 1.1//EN" "http://www.w3.org/Graphics/SVG/1.1/DTD/svg11.dtd">

<!-- Uploaded to: SVG Repo, www.svgrepo.com, Transformed by: SVG Repo Mixer Tools -->
<svg width="64px" height="64px" viewBox="0 0 24 24" fill="none" xmlns="http://www.w3.org/2000/svg" stroke="#ffffff">

<g id="SVGRepo_bgCarrier" stroke-width="0"/>

<g id="SVGRepo_tracerCarrier" stroke-linecap="round" stroke-linejoin="round"/>

<g id="SVGRepo_iconCarrier"> <path transform="matrix(0.7,0,0,0.7,9.4,3.9)" fill-rule="evenodd" clip-rule="evenodd" d="M 5.6 1.4 C 6.5 1.4 7.2 2.1 7.5 2.8 L 8.1 4.5 H 10.3 C 12 4.5 13.3 5.9 13.3 7.5 V 15.4 C 13.3 17.2 12 18.4 10.3 18.4 H -3.7 C -5.3 18.4 -6.7 17.2 -6.7 15.4 V 7.5 C -6.7 5.9 -5.3 4.5 -3.7 4.5 H -1.4 L -0.8 2.8 C -0.6 2.1 0.2 1.4 1.1 1.4 H 5.6 Z M 5.6 3.4 H 1.1 L 0.5 5 C 0.2 6 -0.5 6.5 -1.4 6.5 H -3.7 C -4.2 6.5 -4.7 7 -4.7 7.5 V 15.4 C -4.7 16.1 -4.2 16.4 -3.7 16.4 H 10.3 C 10.9 16.4 11.3 16.1 11.3 15.4 V 7.5 C 11.3 7 10.9 6.5 10.3 6.5 H 8.1 C 7.2 6.5 6.4 6 6.2 5 L 5.6 3.4 Z M 0.8 10.9 C 0.8 9.5 2 8.5 3.3 8.5 C 4.7 8.5 5.8 9.5 5.8 10.9 C 5.8 12.3 4.7 13.4 3.3 13.4 C 2 13.4 0.8 12.3 0.8 10.9 Z M 3.3 6.5 C 0.8 6.5 -1.2 8.5 -1.2 10.9 C -1.2 13.4 0.8 15.4 3.3 15.4 C 5.8 15.4 7.8 13.4 7.8 10.9 C 7.8 8.5 5.8 6.5 3.3 6.5 Z" fill="#ffffff"/> </g>

</svg>